<?xml version="1.0" encoding="utf-8"?>
<!-- Generator: Adobe Illustrator 17.0.0, SVG Export Plug-In . SVG Version: 6.00 Build 0)  -->
<!DOCTYPE svg PUBLIC "-//W3C//DTD SVG 1.1//EN" "http://www.w3.org/Graphics/SVG/1.1/DTD/svg11.dtd">
<svg version="1.1" id="Layer_1" xmlns="http://www.w3.org/2000/svg" xmlns:xlink="http://www.w3.org/1999/xlink" x="0px" y="0px"
	 width="1500px" height="1500px" viewBox="0 0 1500 1500" enable-background="new 0 0 1500 1500" xml:space="preserve">
<path fill="none" d="M1409.878,660.782c-49.274-364.44-384.655-619.934-749.095-570.66S40.849,474.777,90.122,839.218
	s384.655,619.934,749.095,570.66c156.914-21.215,293.631-95.47,394.521-202.247C1367.17,1066.412,1437.936,868.309,1409.878,660.782
	z"/>
<text transform="matrix(0.7867 0.6174 -0.6174 0.7867 305.8857 1247.9642)"><tspan x="0" y="0" font-family="'AkzidenzGroteskBE-Bold'" font-size="118.1668">A</tspan><tspan x="90.809" y="-0.406" font-family="'AkzidenzGroteskBE-Bold'" font-size="118.1668" rotate="-7.866">N</tspan><tspan x="182.337" y="-14.062" font-family="'AkzidenzGroteskBE-Bold'" font-size="118.1668" rotate="-14.96">T</tspan><tspan x="250.446" y="-33.089" font-family="'AkzidenzGroteskBE-Bold'" font-size="118.1668" rotate="-19.789">I</tspan><tspan x="290.298" y="-46.546" font-family="'AkzidenzGroteskBE-Bold'" font-size="118.1668" rotate="-25.339">S</tspan><tspan x="369.581" y="-84.749" font-family="'AkzidenzGroteskBE-Bold'" font-size="118.1668" rotate="-32.748">E</tspan><tspan x="440.766" y="-129.827" font-family="'AkzidenzGroteskBE-Bold'" font-size="118.1668" rotate="-41.366">M</tspan><tspan x="527.031" y="-207.876" font-family="'AkzidenzGroteskBE-Bold'" font-size="118.1668" rotate="-50.181">A</tspan><tspan x="584.918" y="-277.931" font-family="'AkzidenzGroteskBE-Bold'" font-size="118.1668" rotate="-58.102">N</tspan><tspan x="632.972" y="-357.071" font-family="'AkzidenzGroteskBE-Bold'" font-size="118.1668" rotate="-65.269">T</tspan><tspan x="661.838" y="-421.67" font-family="'AkzidenzGroteskBE-Bold'" font-size="118.1668" rotate="-70.123">I</tspan><tspan x="676.9" y="-460.91" font-family="'AkzidenzGroteskBE-Bold'" font-size="118.1668" rotate="-75.656">C</tspan><tspan x="696.891" y="-544.543" font-family="'AkzidenzGroteskBE-Bold'" font-size="118.1668" rotate="-80.932"> </tspan><tspan x="701.604" y="-573.739" font-family="'AkzidenzGroteskBE-Bold'" font-size="118.1668" rotate="-83.467"> </tspan></text>
<g>
	<g>
		<path d="M607.98,707.861c0.153,2.087-1.289,4.332-2.159,6.445c-1.413,3.435-3.114,6.76-4.383,10.245
			c-1.429,3.925-2.514,7.975-3.753,11.969c-0.065,0.211-0.116,0.471-0.266,0.604c-3.697,3.287-4.336,7.945-5.663,12.324
			c-0.266,0.877-1.36,1.503-1.623,1.777c-0.744,2.611-1.175,4.927-2.056,7.058c-2.038,4.929-3.427,10.078-6.529,14.645
			c-2.146,3.159-3.06,7.202-4.281,10.93c-1.695,5.175-7.185,14.739-10.157,17.078c0.451,0.58,0.902,1.161,0.828,1.066
			c-1.291,3.176-2.394,5.983-3.572,8.758c-1.006,2.37-2.133,4.688-3.146,7.055c-3.662,8.561-7.075,17.238-11.02,25.666
			c-2.782,5.943-7.323,10.974-8.377,17.861c-0.372,2.431-2.643,4.552-3.97,6.859c-2.48,4.314-5.039,8.591-7.304,13.018
			c-1.557,3.042-2.506,6.391-4.031,9.452c-1.648,3.308-3.738,6.393-5.475,9.661c-1.994,3.753-3.723,7.647-5.727,11.395
			c-2.455,4.59-5.058,9.102-7.628,13.63c-2.203,3.88-4.381,7.776-6.712,11.578c-0.897,1.463-2.221,2.66-3.283,4.03
			c-0.504,0.65-1.044,1.375-1.233,2.149c-1.143,4.666-3.16,8.762-6.141,12.644c-2.6,3.386-4.415,7.481-5.986,11.494
			c-0.561,1.435,0.001,4.266,1.112,5.209c2.693,2.283,5.05,1.584,7.491-1.315c4.37,3.679,8.086,4.313,14.985,2.728
			c0.131,1.186,0.267,2.422,0.403,3.659c0.406-0.005,0.813-0.009,1.219-0.014c0.196-0.669,0.393-1.338,0.687-2.341
			c1.5,0.019,3.307,0.252,5.045,0.005c1.631-0.232,3.19-0.973,5.645-1.771c-1.158,1.735-1.79,2.68-2.288,3.427
			c2.239,0.199,4.593,0.577,6.938,0.526c0.823-0.018,1.623-1.093,2.814-1.964c-0.06,0.995-0.105,1.743-0.143,2.377
			c1.092,0.645,2.08,1.586,3.21,1.813c1.752,0.353,4.103,0.96,5.31,0.144c2.873-1.942,4.471,0.836,6.564,1.27
			c2.78,0.577,2.668,1.118,4.253-0.363c2.336-0.163,3.97-0.31,5.608-0.373c0.493-0.019,1.433,0.221,1.428,0.292
			c-0.068,0.993-0.265,1.977-0.431,2.971c5.399,0.825,10.938,1.685,16.483,2.512c2.276,0.339,4.615,1.021,6.824,0.744
			c1.236-0.155,2.265-1.956,3.932-3.529c0.682,0.795,1.875,2.186,3.336,3.888c0.29-0.644,0.667-1.481,1.187-2.635
			c3.21,0.98,7.196-0.838,10.492,1.877c0.07,0.058,0.253,0.085,0.311,0.037c4.052-3.311,8.642,0.479,13.039-1.049
			c3.026-1.052,6.655-0.344,10.012-0.472c2.482-0.095,4.972-0.497,7.438-0.37c7.764,0.403,15.336-1.519,23.053-1.725
			c3.489-0.093,6.94-1.244,10.436-1.446c5.754-0.333,11.535-0.175,17.297-0.424c7.052-0.305,14.095-0.826,21.144-1.224
			c0.936-0.053,1.884,0.034,2.823,0.109c0.998,0.081,2.146,0.61,2.962,0.282c6.68-2.689,13.7-1.387,20.555-1.837
			c3.658-0.24,7.377,0.461,11.038,0.237c4.189-0.257,8.329-1.27,12.518-1.596c6.318-0.491,12.66-0.653,18.991-0.986
			c9.24-0.487,18.478-0.995,27.716-1.506c7.4-0.409,14.833-0.537,22.187-1.361c4.93-0.552,9.653-1.147,14.65-0.046
			c2.664,0.588,5.719-0.622,8.602-0.981c1.026-0.128,2.065-0.157,3.1-0.202c2.467-0.107,4.934-0.25,7.403-0.283
			c4.335-0.058,8.674,0.044,13.006-0.082c5.299-0.154,10.591-0.513,15.889-0.694c1.48-0.05,2.971,0.312,4.458,0.321
			c4.787,0.031,9.577-0.089,14.363-0.011c5.428,0.089,10.852,0.398,16.279,0.456c1.321,0.014,2.645-0.837,3.973-0.855
			c6.746-0.089,13.497,0.101,20.24-0.064c9.997-0.245,19.992-0.647,29.983-1.093c7.774-0.348,15.601-1.665,23.292-1.079
			c7.351,0.56,14.58-0.84,21.877-0.126c1.964,0.192,4.315-0.194,5.954-1.192c1.154-0.703,2.123-3.007,1.901-4.391
			c-0.419-2.603-1.514-5.194-2.806-7.525c-0.795-1.434-2.476-2.378-3.845-3.619c-0.718-1.458-1.47-3.256-2.458-4.913
			c-0.841-1.413-1.953-2.664-3.096-4.19c-0.05,0.037-0.852,0.628-1.655,1.22c2.569-5-2.593-6.347-4.21-9.128
			c-1.547-2.66-4.126-4.698-5.941-7.232c-0.957-1.336-1.05-3.263-1.888-4.719c-1.971-3.425-4.193-6.704-6.244-10.084
			c-1.914-3.153-3.613-6.442-5.641-9.516c-1.706-2.586-3.643-5.044-5.697-7.365c-0.792-0.895-2.19-1.255-3.312-1.858
			c0.352-0.431,0.704-0.861,1.056-1.292c0.665-0.246,1.33-0.492,1.201-0.444c-3.351-4.388-6.733-8.826-10.125-13.256
			c-2.687-3.509-4.358-7.285-4.607-11.864c-0.101-1.864-2.02-3.63-3.141-5.489c-0.548,0.385-1.026,0.722-1.318,0.927
			c-1.875-2.701-3.795-5.124-5.302-7.782c-0.744-1.313-0.721-3.059-1.051-4.608c-1.31-6.149-6.478-9.454-10.051-13.963
			c-1.156-1.459-0.807-4.109-1.221-6.675c-2.738-0.385-3.874-2.222-4.152-6.003c-0.219-2.974-2.881-5.815-4.613-8.619
			c-2.905-4.705-6.988-9.007-8.566-14.1c-1.201-3.88-3.766-7.073-4.584-10.61c-1.454-6.288-5.249-11.038-8.069-16.437
			c-1.88-3.599-3.216-7.5-5.272-10.984c-1.203-2.039-4.182-2.885-4.181-5.912c0-1.337-0.198-2.673-0.328-4.266
			c-4.477-2.853-23.153-35.72-22.469-38.315c-1.416-2.261-3.175-3.83-3.222-5.449c-0.064-2.177-0.616-3.195-2.213-4.737
			c-2.218-2.142-3.499-5.298-5.019-8.108c-1.563-2.889-2.947-5.876-4.376-8.835c-0.566-1.173-1.032-2.394-1.566-3.583
			c-0.652-1.451-1.061-3.109-2.037-4.299c-5.038-6.142-8.973-12.949-12.685-19.934c-2.713-5.105-5.835-9.991-8.602-15.068
			c-1.684-3.091-3.596-6.223-4.419-9.579c-1.435-5.853-5.821-9.854-8.355-14.965c-2.537-5.116-4.931-10.305-7.524-15.393
			c-1.868-3.664-3.966-7.209-5.949-10.814c-2.853-5.186-8.232-8.966-9.309-15.013c-0.665-3.735-3.151-5.853-5.029-8.578
			c-0.262-0.38-0.611-0.713-0.807-1.122c-3.535-7.368-7.016-14.762-10.587-22.112c-2.745-5.649-5.712-11.191-8.372-16.878
			c-2.661-5.69-5.081-11.493-7.573-17.261c-2.679-6.2-5.241-12.453-8.037-18.6c-0.635-1.397-3.085-2.68-2.881-3.622
			c0.839-3.877-4.572-5.561-2.968-9.535c0.273-0.676-0.343-1.749-0.634-2.609c-2.415-7.155-5.196-14.21-7.175-21.483
			c-1.738-6.386-2.749-12.989-3.767-19.545c-0.72-4.634-0.424-9.459-1.443-14.005c-2.418-10.78-2.018-21.612-1.167-32.436
			c0.262-3.325,2.032-6.522,3.035-9.802c0.451-1.474,0.633-3.03,1.081-4.505c0.446-1.465,0.948-2.939,1.647-4.295
			c1.59-3.083,3.243-6.139,5.009-9.124c1.637-2.768,3.231-5.61,5.242-8.097c3.074-3.801,6.231-7.607,9.823-10.898
			c5.111-4.683,10.265-9.516,16.105-13.156c6.523-4.066,13.737-7.091,20.845-10.114c2.957-1.258,6.428-1.279,9.641-1.974
			c2.615-0.566,5.374-0.917,7.751-2.038c4.514-2.129,8.579-4.873,13.992-5.014c4.344-0.114,8.606-2.111,12.98-2.595
			c5.035-0.557,10.307,0.345,15.187-0.717c4.437-0.966,8.185,0.814,12.253,0.956c2.388,0.083,4.301,0.876,6.454,1.68
			c1.881,0.702,4.468-0.488,6.828-0.248c-0.886,0.277-1.773,0.554-3.599,1.124c3.74,1.125,6.568,1.975,9.829,2.956
			c0.128-0.089,1.007-0.695,1.886-1.302c0.409,1.649,0.818,3.298,1.175,4.74c2.563-0.131,5.378-0.275,8.211-0.42
			c0.98,0.179,2.072,0.267,3.086,0.595c1.066,0.345,2.888,0.836,2.947,1.41c0.369,3.597,4.318,3.094,5.767,5.409
			c1.516,2.423,3.231,4.566,6.748,4.417c0.693-0.029,1.504,2.728,2.383,4.44c0.732-0.406,1.455-0.807,2.025-1.124
			c1.769,2.041,3.446,4.076,5.234,6.007c1.326,1.432,2.892,3.958,4.184,3.857c3.743-0.292,4.297,3.226,6.602,4.524
			c1.82,1.025,3.421,2.787,4.522,4.588c0.532,0.871-0.311,2.581-0.486,3.638c1.84,1.095,3.601,1.826,4.953,3.019
			c2.272,2.006,4.696,4.046,6.285,6.559c1.517,2.399,2.05,5.42,3.161,8.581c0.06,0.001,1.068,0.014,2.362,0.031
			c-0.4,2.314,3.714,3.446,1.28,6.264c-0.03,0.034,0.402,0.491,0.641,0.729c3.818,3.801,3.316,9.632,6.529,13.811
			c1.145,1.489,1.624,3.958,1.452,5.895c-0.364,4.093,1.525,6.655,4.536,8.865c0.34,0.25,0.286,1.038,0.489,1.89
			c-0.789-0.222-1.351-0.38-2.982-0.839c1.839,2.065,3.05,3.425,4.713,5.292c-1.415,0.165-2.168,0.253-3.409,0.398
			c2.221,1.86,5.119,2.904,2.067,6.315c-1.024,1.144,0.282,4.391,0.554,6.673c0.635,5.326,1.142,10.673,2.013,15.96
			c0.321,1.949,1.52,3.754,2.504,6.058c-0.171,0.12-1.162,0.815-2.373,1.663c3.201,3.536,0.811,7.29,0.396,10.905
			c-0.449,3.911-1.578,7.748-2.485,11.6c-0.169,0.718-0.733,1.334-1.047,2.028c-0.826,1.823-1.534,3.704-2.44,5.485
			c-1.032,2.028-2.513,3.867-3.289,5.976c-1.271,3.454-4.196,4.877-7.107,6.478c-3.901-2.527-8.203-1.014-9.988,3.611
			c-0.246,0.636-0.4,1.369-0.822,1.866c-1.929,2.268-3.939,4.467-6.078,6.868c-0.379-0.316-1.238-1.031-2.267-1.889
			c-0.695,0.789-1.482,2.234-1.958,2.138c-4.992-1.004-7.423,4.379-11.604,4.642c-4.937,0.311-8.521,3.281-12.718,5.06
			c-2.111,0.895-4.618,1.504-6.857,1.295c-3.387-0.316-4.769-2.741-3.948-6.321c-1.752-0.335-3.678-2.532-3.998,0.923
			c-0.602-2.082-0.8-4.615-2.037-6.444c-0.924-1.365-3.191-1.821-4.975-2.742c-1.421-3.183-2.669-7.029-4.764-10.339
			c-1.669-2.638-0.679-4.175,0.807-6.032c2.841-3.549,5.647-7.126,8.481-10.681c1.694-2.124,2.051-4.226,1.207-7.01
			c-1.929-6.361-3.126-12.944-5.046-19.308c-1.546-5.123-3.768-10.039-5.591-15.082c-1.296-3.584-2.153-7.349-3.7-10.813
			c-1.924-4.308-3.941-8.515-5.562-12.996c-1.75-4.841-5.088-9.204-8.197-13.435c-4.584-6.241-9.425-12.313-14.479-18.179
			c-1.843-2.139-4.533-3.6-6.972-5.159c-3.34-2.134-6.669-4.39-10.282-5.944c-1.741-0.749-4.244-0.426-6.186,0.147
			c-3.363,0.992-6.271,2.836-7.846,6.311c-0.373,0.824-1.542,1.287-1.786,1.478c-1.108,4.719-2.157,8.974-3.089,13.255
			c-0.43,1.978-0.662,4.001-0.923,6.012c-0.149,1.151-0.175,2.318-0.259,3.477c-0.116,1.596-0.476,3.218-0.304,4.781
			c0.456,4.146,1.297,8.253,1.65,12.405c0.122,1.432-0.744,2.948-1.355,5.129c0.236,0.227,1.163,1.118,2.341,2.25
			c-1.081,4.265-0.852,8.814,0.672,13.575c1.463,4.57,1.785,9.505,2.608,14.28c0.039,0.225-0.001,0.526,0.13,0.662
			c4.667,4.847,3.612,11.612,5.807,17.283c0.122,0.317,0.11,0.764,0.33,0.952c2.308,1.977,1.573,3.705-1.534,5.869
			c6.169-1.031,4.874,4.143,7.043,6.273c1.609,1.58,1.999,4.538,2.605,6.964c0.662,2.65,0.93,5.398,1.416,8.095
			c0.071,0.395,0.318,0.834,0.621,1.092c0.394,0.335,1.288,0.448,1.341,0.762c0.694,4.133,4.217,6.644,5.769,10.25
			c0.591,1.374,0.769,2.926,0.808,4.415c1.143,2.029,2.28,4.063,3.432,6.087c0.487,0.855,1.104,1.648,1.493,2.543
			c0.873,2.011,2.022,4.005,2.375,6.12c0.863,5.167,3.012,9.391,7.458,12.318c0.367,0.242,0.75,0.577,0.933,0.96
			c2.317,4.875,4.671,9.736,6.842,14.676c0.583,1.327,0.582,2.911,0.781,3.997c1.152,0.908,2.589,1.553,3.25,2.661
			c1.466,2.457,2.553,5.142,3.778,7.742c3.405,7.23,5.814,15.204,10.508,21.466c3.883,5.18,5.55,11.407,9.67,16.273
			c0.599,0.707,0.626,1.915,0.868,2.903c0.159,0.649,0.031,1.456,0.374,1.96c2.385,3.51,4.893,6.936,7.28,10.444
			c0.548,0.806,0.689,1.878,1.175,2.738c1.131,2.006,2.252,4.032,3.571,5.914c2.113,3.016,4.546,5.821,6.494,8.934
			c0.653,1.043-0.085,2.875,0.385,4.132c0.796,2.127,2.066,4.074,3.1,6.115c0.565,1.116,1.154,2.235,1.557,3.413
			c0.478,1.397-0.025,3.575,2.69,2.905c0.154-0.038,0.508,0.395,0.643,0.67c1.448,2.971,3.45,5.824,4.163,8.967
			c1.049,4.621,2.204,8.971,5.569,12.516c1.339,1.411,1.729,3.022,1.457,5.264c-0.275,2.269,1.08,4.737,1.728,7.141
			c2.475-0.204,5.841,3.792,6.753,7.446c0.52,2.084,1.874,3.967,2.912,5.908c0.265,0.495,1.027,0.821,1.107,1.301
			c1.243,7.423,7.074,12.424,9.933,18.976c0.991,2.27,1.68,4.67,2.571,6.986c0.314,0.817,0.829,1.557,1.237,2.339
			c1.726,3.311,3.344,6.683,5.203,9.918c1.518,2.642,3.453,5.045,4.97,7.688c2.66,4.635,5.156,9.364,7.691,14.07
			c1.349,2.505,2.511,5.118,3.971,7.554c4.044,6.745,6.786,14.17,12.017,20.344c3.384,3.994,5.149,9.332,7.838,13.953
			c2.114,3.632,4.635,7.026,6.771,10.646c1.077,1.826,1.489,4.044,2.566,5.87c4.857,8.235,9.843,16.393,14.787,24.576
			c0.119,0.196,0.381,0.345,0.419,0.545c1.262,6.639,6.846,10.715,9.686,16.343c3.379,6.697,8.22,12.31,12.199,18.539
			c3.269,5.116,6.203,10.447,9.214,15.724c0.304,0.533,0.109,1.351,0.146,2.038c4.176,0.095,3.756,4.304,5.632,6.456
			c1.774,2.034,2.993,4.545,4.547,6.782c1.005,1.446,2.193,2.764,3.265,4.166c2.566,3.358,5.104,6.737,7.673,10.093
			c0.274,0.358,0.886,0.556,0.994,0.929c2.313,7.998,8.438,13.71,12.478,20.675c2.869,4.946,6.388,9.629,10.262,13.836
			c2.325,2.525,4.899,5.231,8.75,6.113c1.556,0.356,2.769,2.213,4.138,3.387c0.376-0.103,0.752-0.206,1.128-0.309
			c-0.424,2.76-0.967,5.509-1.221,8.285c-0.125,1.371,0.284,2.79,0.549,5.004c-0.04,0.056-1.388,1.201-1.177,1.768
			c1.367,3.694-0.627,5.271-3.455,6.848c-1.541,0.859-3.139,1.951-2.937,4.494c0.066,0.837-2.135,2.06-3.484,2.737
			c-1.054,0.529-2.395,0.487-2.765,0.552c-1.302,1.925-2.052,3.631-3.321,4.75c-1.369,1.208-3.223,1.868-5.093,2.891
			c-0.236-0.45-0.579-1.104-1.264-2.408c-1.724,1.519-3.332,2.946-4.956,4.354c-0.16,0.139-0.427,0.243-0.634,0.228
			c-4.908-0.36-9.845-0.531-14.707-1.225c-1.722-0.246-2.77-0.872-3.979,1.06c-1.277,2.04-3.262,3.033-5.399,0.641
			c-0.349-0.39-1.027-0.787-1.493-0.726c-4.35,0.569-8.688,1.24-13.029,1.876c-1.583,0.232-3.167,0.633-4.752,0.641
			c-7.216,0.034-14.432-0.045-21.648-0.074c-0.223-0.001-0.535,0.238-0.655,0.152c-5.202-3.686-9.486,1.755-14.338,1.426
			c-2.752-0.187-5.563-0.123-8.241-0.681c-5.72-1.192-11.04,0.535-16.505,1.577c-1.95,0.372-4.082-0.32-6.133-0.344
			c-2.647-0.031-5.317-0.054-7.936,0.262c-1.562,0.188-3.01,1.242-4.577,1.495c-0.838,0.136-2.013-0.381-2.688-0.99
			c-1.205-1.087-5.617-1.81-6.609-0.699c-0.368,0.412-0.253,1.257-0.328,1.719c-2.688-0.44-5.533-0.325-7.81-1.406
			c-4.036-1.916-7.412,1.21-11.15,0.725c-1.602-0.208-3.215-0.517-4.818-0.488c-5.2,0.094-10.396,0.404-15.596,0.46
			c-1.902,0.021-3.831-0.754-5.709-0.619c-7.207,0.519-14.387,1.575-21.598,1.813c-5.19,0.171-10.407-0.772-15.621-0.957
			c-3.083-0.11-6.184,0.298-9.278,0.452c-2.052,0.102-4.106,0.202-6.16,0.243c-2.898,0.058-5.798,0.094-8.697,0.073
			c-1.674-0.012-3.433,0.152-5.004-0.292c-6.3-1.782-12.307,0.549-18.45,0.892c-6.199,0.347-12.466-0.59-18.707-0.892
			c-1.473-0.071-2.97,0.071-4.439,0.25c-2.247,0.272-4.474,0.911-6.718,0.955c-8.181,0.162-16.367,0.092-24.548,0.233
			c-1.575,0.027-3.147,0.577-4.707,0.943c-0.77,0.181-1.539,0.775-2.257,0.699c-7.576-0.806-14.98,1.233-22.49,1.252
			c-1.605,0.004-3.208-1.023-4.821-1.053c-1.267-0.024-2.241-0.831-4.102,0.2c-2.933,1.625-7.018,1.171-10.615,1.597
			c-0.714-3.664-3.544-1.705-5.483-1.991c-0.742-0.11-1.716,0.113-2.326,0.547c-2.904,2.069-6.046,1.391-9.268,1.286
			c-5.179-0.168-10.375,0.174-15.562,0.339c-0.515,0.016-1.131,0.164-1.514,0.477c-1.903,1.557-1.881,1.583-2.753-0.604
			c-5.075,0.869-10.127,1.786-15.197,2.585c-3.798,0.599-7.611,1.353-11.434,1.458c-2.697,0.074-5.408-0.941-8.139-1.235
			c-1.312-0.141-2.68,0.288-4.028,0.407c-2.303,0.204-4.756,0.949-6.882,0.414c-3.304-0.831-6.115-0.879-7.385,0.483
			c-4.808,0.268-8.264,0.46-12.287,0.684c-0.145-0.195-0.748-1.005-1.362-1.831c-2.308,0.827-4.696,1.683-7.895,2.829
			c-0.006-0.009-0.468-0.765-0.601-0.982c-2.214,0.592-4.103,1.313-6.054,1.571c-3.464,0.458-7.482-0.353-10.342,1.141
			c-5.683,2.968-11.29,1.412-16.971,1.493c-2.851,0.041-5.389-1.703-7.895-1.651c-2.987,0.062-6.916,0.997-8.676,3.058
			c-2.679,3.135-5.959,2.904-8.079,1.726c-4.365-2.425-7.608-0.54-11.241,1.191c-0.383-0.609-0.73-1.162-0.934-1.487
			c-5.404,2.532-10.693,2.968-16.501,1.026c-3.211,0.531-6.858,1.134-11.041,1.826c-0.899-0.768-2.268-1.937-4.081-3.485
			c-0.292,1.478-0.49,2.485-0.599,3.038c-0.87,0.046-1.703-0.109-2.367,0.157c-5.497,2.203-11.158,2.811-17.086,2.864
			c-6.431,0.056-12.853,1.156-19.276,1.82c-0.565,0.058-1.235,0.537-1.651,0.354c-2.167-0.957-3.874-0.61-6.119,0.432
			c-2.157,1.002-5.077,0.281-7.648,0.485c-4.908,0.389-9.803,0.946-14.71,1.34c-3.81,0.307-7.629,0.606-11.447,0.644
			c-1.844,0.018-3.687-0.622-5.541-0.882c-3.277-0.459-6.121,0.716-9.204,1.779c-3.464,1.194-7.479,0.958-11.26,1.012
			c-3.192,0.046-6.39-0.382-9.691-0.607c0.313-1.126,0.732-2.632,1.15-4.138c-0.334-0.194-0.669-0.387-1.003-0.581
			c-1.948,2.426-3.896,4.851-6.187,7.705c-0.889-2.3-1.612-4.171-2.361-6.106c-2.12,0.597-4.247,1.197-7.31,2.06
			c1.461-2.202,2.268-3.417,3.278-4.941c-1.202-0.457-2.351-1.281-2.792-0.999c-2.943,1.884-5.919,0.111-8.849,0.247
			c-0.232,0.011-0.855-1.264-0.695-1.741c0.207-0.619,1.016-1.037,1.523-1.503c-1.49-0.415-3.485-0.416-3.853-1.19
			c-0.761-1.604-1.355-3.883-0.773-5.411c1.449-3.804,1.098-4.883-2.997-5.288c-0.62-0.061-1.27,0.172-3.013,0.437
			c1.653-2.313,2.733-3.824,3.813-5.336c0.345,0.169,0.689,0.338,1.034,0.507c-0.168-1.21-0.336-2.42-0.508-3.664
			c1.18-0.565,2.377-1.1,3.54-1.701c4.035-2.088,1.974-5.161,1.013-7.8c-0.684-1.88-1.353-3.178,1.217-3.995
			c0.281-0.089,0.301-2.886-0.158-3.092c-1.938-0.871-4.103-1.237-6.065-1.756c-0.065-0.537-0.195-0.893-0.103-0.964
			c2.367-1.851,5.517-6.873,8.299-10.234c2.362-2.854,5.928-4.811,9.196-6.775c1.586-0.953,3.078-1.288,2.557-3.69
			c-0.187-0.863,0.602-2.061,1.186-2.947c2.878-4.363,5.917-8.622,8.727-13.028c1.051-1.649,1.635-3.596,2.525-5.616
			c0.204,0.138-0.148-0.1-0.502-0.338c0.123-0.154,0.224-0.337,0.376-0.454c1.185-0.913,2.732-1.583,3.501-2.763
			c1.785-2.737,3.056-5.808,4.816-8.565c0.924-1.447,1.482-3.819,4.24-3.088c0.254,0.067,0.973-1.156,1.27-1.866
			c0.219-0.524,0.036-1.201,0.149-1.787c0.284-1.476,0.633-2.94,0.961-4.408c0.12-0.538,0.159-1.121,0.403-1.599
			c0.772-1.515,1.623-2.989,2.741-5.021c1.467,0.096,2.983-0.153,2.603-3.449c-0.171-1.485,2.671-3.171,3.776-4.991
			c1.132-1.864,1.641-4.103,2.74-5.993c1.069-1.839,2.597-3.404,3.817-5.164c0.898-1.295,1.413-2.91,2.472-4.03
			c2.902-3.071,2.465-7.281,4.017-10.773c0.714-1.608,2.048-2.933,3.041-4.427c1.348-2.027,2.836-4.002,3.841-6.193
			c0.326-0.71-0.678-2.03-0.84-2.456c2.529-3.129,5.091-5.99,7.293-9.105c2.381-3.368,5.326-6.578,3.823-11.458
			c-0.269-0.874,1.581-2.4,2.627-3.87c-1.949-2.173,0.742-3.922,2.024-5.333c3.005-3.306,4.616-6.997,5.261-11.329
			c0.258-1.728,0.674-4.397,1.773-4.866c4.314-1.841,3.221-6.081,4.659-9.111c2.199-4.635,2.834-10.588,6.179-13.94
			c3.295-3.301,1.66-8.208,5.426-10.655c0.808-0.525,1.392-1.394,2.27-2.302c-0.54-0.329-1.146-0.697-1.791-1.09
			c2.167-4.795,4.4-9.565,6.475-14.402c0.968-2.258,1.582-4.665,2.438-6.974c2.095-5.649,5.704-10.575,7.094-16.643
			c1.048-4.577,3.646-8.79,5.433-13.213c0.353-0.873,0.046-1.989,0.232-2.957c0.354-1.85,0.628-3.762,1.335-5.484
			c0.732-1.783,2.137-3.286,2.895-5.063c1.421-3.331,2.478-6.82,3.936-10.133c0.385-0.875,1.682-1.349,2.225-1.756
			c0.381-11.077,7.503-18.927,13.502-28.015c-1.758,0.716-2.638,1.074-3.517,1.432c0.212-1.018,0.279-2.093,0.66-3.043
			c2.078-5.186,4.015-10.447,6.452-15.463c1.29-2.655,3.552-4.826,5.277-7.283"/>
	</g>
	<path d="M544.934,670.04c1.771-2.522,4.586-4.252,2.147-8.604c-1.129-2.014,1.492-6.278,2.728-9.398
		c0.517-1.305,1.852-2.287,3.394-4.094c-1.305,0.327-1.794,0.449-3.038,0.76c0.472-2.062,0.779-3.886,1.314-5.641
		c1.057-3.461,2.242-6.884,3.373-10.322c0.072-0.22,0.267-0.518,0.188-0.652c-1.755-2.98-0.809-5.207,2.152-6.807
		c-3.523-2.161-3.234-3.15,0.601-6.065c1.326-4.658,2.373-8.236,3.359-11.831c1.213-4.419,2.276-8.882,3.617-13.261
		c0.416-1.359,2.225-2.527,2.188-3.745c-0.129-4.201,2.685-7.084,4.023-10.604c1.134-2.986,1.705-6.183,2.568-9.274
		c1.469-5.265,3.165-10.475,4.409-15.791c1.344-5.745,2.362-11.571,3.338-17.393c0.267-1.595,0.145-3.373-0.267-4.943
		c-1.642-6.253,0.447-12.133,1.409-18.164c0.942-5.903,1.277-11.902,2.142-17.82c0.295-2.021,1.42-3.914,2.109-5.886
		c0.335-0.958,0.656-1.949,0.778-2.949c0.442-3.638,0.905-7.279,1.154-10.934c0.239-3.511,0.224-7.04,0.317-10.561
		c0.024-0.885-0.286-1.966,0.111-2.623c1.797-2.979,3.834-5.812,5.687-8.759c0.461-0.734,0.559-1.697,0.792-2.451
		c1.611,0.021,3.764,0.597,5.371-0.096c1.405-0.605,1.968-2.943,3.324-3.947c1.147-0.849,2.887-0.924,4.383-1.263
		c0.644-0.146,1.436,0.111,1.985-0.165c5.166-2.595,10.294-5.266,15.821-8.115c-0.128,1.239-0.207,2.001-0.403,3.888
		c2.775-1.321,4.828-2.427,6.988-3.257c0.779-0.3,1.813,0.063,3.231,0.156c1.746-2.104,3.625-4.88,6.022-7.095
		c1.895-1.752,2.673-0.169,2.742,2.374c1.647-0.783,3.024-1.724,4.539-2.079c1.614-0.379,3.416-0.508,5.033-0.203
		c2.826,0.532,5.479,1.999,8.513,1.357c0.353-0.075,0.876,0.24,1.201,0.515c2.479,2.104,4.977,4.19,7.373,6.386
		c2.485,2.279,5.256,4.406,7.128,7.131c1.009,1.469,6.372-0.868,3.444,4.138c-1.139,1.947-0.305,4.966-0.71,7.441
		c-0.697,4.256-0.528,8.204,0.96,12.439c2.678,7.621,4.308,15.604,6.788,23.303c1.474,4.576,3.768,8.885,5.618,13.345
		c0.385,0.929,0.462,1.992,0.635,3.002c0.113,0.661-0.102,1.533,0.251,1.973c3.394,4.24,3.775,9.54,5.299,14.444
		c0.313,1.005,1.505,1.71,1.95,2.707c1.202,2.69,2.293,5.437,3.289,8.21c1.045,2.909,1.009,6.077,3.749,8.51
		c1.385,1.229,1.288,4.125,1.865,6.266c0.341,1.264,0.499,2.619,1.065,3.774c3.03,6.18,6.184,12.3,9.253,18.461
		c3.046,6.114,6.084,12.233,9.053,18.385c4.449,9.216,8.718,18.521,13.302,27.669c1.944,3.88,4.598,7.397,6.731,11.19
		c1.9,3.378,3.287,7.059,5.331,10.338c2.82,4.524,6.137,8.735,9.043,13.209c0.948,1.46,1.276,3.322,1.91,5.061
		c6.87,7.938,12.103,16.988,15.723,27.502c3.679-0.664,5.323,2.424,7.307,5.457c3.072,4.697,6.586,9.103,9.77,13.731
		c0.679,0.987,0.745,2.395,1.23,4.089c0.072,0.028,1.314,0.115,1.698,0.734c2.918,4.708,6.229,9.287,8.326,14.358
		c2.522,6.099,7.044,10.872,9.806,16.723c1.543,3.268,2.497,6.859,4.337,9.933c4.44,7.419,9.307,14.58,13.877,21.923
		c2.659,4.273,4.916,8.8,7.662,13.013c1.804,2.768,4.174,5.166,6.257,7.756c1.058,1.316,2.734,2.324,1.943,4.572
		c-0.15,0.426,1.085,1.312,1.638,2.019c3.231,4.126,6.487,8.234,9.637,12.421c0.587,0.78,1.066,1.909,1.021,2.85
		c-0.156,3.258,2.219,4.928,3.944,7.087c2.905,3.635,5.623,7.419,8.428,11.134c1.755,2.325,3.485,4.669,5.298,6.948
		c2.05,2.577,4.185,5.086,6.272,7.634c0.289,0.353,0.816,0.87,0.723,1.124c-1.055,2.87,1.1,4.02,2.525,5.937
		c2.064,2.777,4.047,5.891,3.283,9.984c-0.394,2.109,0.525,4.463,0.876,6.88c-1.02,1.159-2.215,2.516-3.569,4.055
		c-2.262-1.352-4.084-0.907-6.609,0.589c-3.694,2.19-8.158,3.15-12.375,4.351c-1.458,0.416-2.159,0.267-1.65,2.262
		c0.224,0.876-1.525,3.05-2.701,3.345c-3.983,0.999-8.122,1.356-12.171,2.121c-0.731,0.138-1.431,0.956-1.948,1.615
		c-2.093,2.666-5.925,2.995-7.633,1.149c-1.493,0.984-2.855,1.92-4.257,2.791c-0.876,0.544-1.878,0.896-2.711,1.492
		c-3.531,2.527-6.175,2.414-9.27-0.517c-0.326-0.308-0.453-0.887-0.813-1.088c-3.945-2.203-5.349-3.619-7.742-7.859
		c-0.275-0.487-0.798-1.304-1.067-1.252c-3.734,0.72-3.423-2.568-4.505-4.447c-2.48-4.308-4.906-8.648-7.419-12.937
		c-3.1-5.291-6.128-10.632-9.455-15.778c-1.88-2.908-4.322-5.449-6.464-8.192c-2.359-3.019-4.239-6.586-7.099-9
		c-3.946-3.331-4.077-8.316-6.572-12.182c-1.951-3.022-4.128-5.9-6.031-8.95c-2.024-3.245-3.836-6.62-5.753-9.932
		c-1.136-1.963-2.252-3.94-3.454-5.863c-2.546-4.074-5.118-8.132-7.731-12.163c-0.805-1.242-1.55-3.027-2.716-3.432
		c-3.135-1.089-3.625-3.802-4.994-6.161c-1.296-2.233-3.733-3.787-5.13-5.982c-1.874-2.944-5.489-5.067-4.785-9.407
		c0.101-0.622-0.549-1.751-1.145-2.039c-4.639-2.247-6.08-6.435-6.274-10.985c-0.179-4.199-3.492-6.46-5.067-9.765
		c-2.077-4.356-7.047-6.316-9.149-11.109c-0.928-2.116-2.521-4.077-3.313-6.629c-0.944-3.039-3.118-5.695-4.766-8.514
		c-0.053-0.091-0.177-0.176-0.281-0.195c-5.805-1.054-6.265-6.372-8.417-10.402c-1.858-3.48-3.851-6.915-6.106-10.146
		c-2.058-2.95-4.006-5.669-3.577-9.63c0.375-3.458-2.558-5.244-4.71-7.394c-1.081-1.08-1.661-2.648-2.535-3.952
		c-0.803-1.198-1.747-2.301-2.538-3.506c-3.728-5.678-7.419-11.379-11.147-17.057c-0.233-0.355-0.632-0.63-1.004-0.861
		c-3.619-2.245-3.662-2.45-1.148-5.165c-1.522-1.802-3.008-3.559-4.019-4.756c0.606-2.169,1.13-4.043,1.784-6.384
		c-1.245,0.758-2.075,1.263-2.768,1.685c-5.25-10.944-10.498-21.884-15.665-32.656c-3.745,0.737-5.933,4.04-5.758,7.728
		c0.164,3.449-0.025,3.698-3.144,4.577c-0.618,2.604-1.064,5.052-1.792,7.413c-1.034,3.352-2.276,6.639-3.426,9.955
		c-0.19,0.547-0.227,1.206-0.563,1.632c-4.902,6.223-5.685,14.104-8.576,21.131c-3.109,7.554-6.477,15.002-9.563,22.565
		c-1.552,3.803-2.637,7.794-4.105,11.634c-0.929,2.431-2.426,4.66-3.214,7.125c-0.985,3.082-2.86,5.832-2.595,9.441"/>
</g>
<g>
	<path fill="none" stroke="#000000" stroke-width="5.968" stroke-miterlimit="10" d="M278.593,1220.341
		C168.932,1110.523,96.958,962.097,85.622,795.097C60.715,428.171,337.977,110.528,704.903,85.622s684.569,252.355,709.475,619.281
		c13.103,193.032-57.422,372.425-180.635,502.732"/>
	<path fill="none" stroke="#000000" stroke-width="5.968" stroke-miterlimit="10" d="M303.471,1192.023
		c-102.488-103.438-169.698-242.791-180.333-399.472c-23.5-346.206,238.105-645.913,584.311-669.413
		s645.913,238.105,669.413,584.311c12.353,181.982-54.07,351.116-170.148,474.039"/>
	<path fill="none" stroke="#000000" stroke-width="5.968" stroke-miterlimit="10" d="M328.349,1163.705
		c-95.316-97.057-157.76-227.337-167.695-373.701c-22.094-325.487,223.855-607.257,549.342-629.35s607.257,223.855,629.35,549.342
		c11.603,170.932-50.718,329.806-159.66,445.347"/>
</g>
</svg>
