<?xml version="1.0" encoding="utf-8"?>
<!-- Generator: Adobe Illustrator 17.0.0, SVG Export Plug-In . SVG Version: 6.00 Build 0)  -->
<!DOCTYPE svg PUBLIC "-//W3C//DTD SVG 1.1//EN" "http://www.w3.org/Graphics/SVG/1.1/DTD/svg11.dtd">
<svg version="1.1" id="Layer_1" xmlns="http://www.w3.org/2000/svg" xmlns:xlink="http://www.w3.org/1999/xlink" x="0px" y="0px"
	 width="1500px" height="1500px" viewBox="0 0 1500 1500" enable-background="new 0 0 1500 1500" xml:space="preserve">
<circle fill="#FFFFFF" cx="750" cy="750" r="750"/>
<g>
	<path fill="#FFFFFF" stroke="#000000" stroke-width="5.968" stroke-miterlimit="10" d="M278.593,1220.341
		C168.932,1110.523,96.958,962.097,85.622,795.097C60.715,428.171,337.977,110.528,704.903,85.622s684.569,252.355,709.475,619.281
		c13.103,193.032-57.422,372.425-180.635,502.732"/>
	<path fill="#FFFFFF" stroke="#000000" stroke-width="5.968" stroke-miterlimit="10" d="M303.471,1192.023
		c-102.488-103.438-169.698-242.791-180.333-399.472c-23.5-346.206,238.105-645.913,584.311-669.413
		s645.913,238.105,669.413,584.311c12.353,181.982-54.07,351.116-170.148,474.039"/>
	<path fill="#FFFFFF" stroke="#000000" stroke-width="5.968" stroke-miterlimit="10" d="M328.349,1163.705
		c-95.316-97.057-157.76-227.337-167.695-373.701c-22.094-325.487,223.855-607.257,549.342-629.35s607.257,223.855,629.35,549.342
		c11.603,170.932-50.718,329.806-159.66,445.347"/>
</g>
<g>
	<path d="M398.756,1214.795l-27.332,84.599l-17.477-13.715l4.989-13.058l-24.171-18.968l-11.496,7.952l-17.478-13.714l75.858-46.52
		L398.756,1214.795z M377.669,1223.482c-3.463,2.69-7.092,5.4-10.647,8.018c-5.261,3.833-13.826,9.579-19.179,13.339l16.64,13.059
		L377.669,1223.482z"/>
	<path d="M426.446,1235.638l17.657,10.301l0.137,35.647c-0.179,13.438-0.35,17.717-0.672,26.01l26.154-46.713l17.249,10.063
		l-42.035,72.059l-17.656-10.3l-0.196-30.62c-0.28-14.527-0.195-17.487,0.501-29.939l-25.924,45.616l-17.25-10.063L426.446,1235.638
		z"/>
	<path d="M491.631,1272.994l59.097,25.289l-6.508,15.209l-19.88-8.507l-26.358,61.596l-19.229-8.229l26.358-61.596l-19.988-8.554
		L491.631,1272.994z"/>
	<path d="M576.83,1306.399l-26.243,79.188l-19.74-6.543l26.243-79.187L576.83,1306.399z"/>
	<path d="M590.018,1371.194c1.574,2.762,2.902,4.986,6.464,8.063c4.795,4.071,10.109,6.319,14.843,7.354
		c8.081,1.765,15.839-0.532,17.074-6.188c1.412-6.465-6.558-9.294-12.384-11.413c-4.376-1.561-8.752-3.121-12.938-5.002
		c-4.736-2.124-20.925-9.408-17.094-26.956c4.589-21.01,24.652-23.159,38.736-20.084c18.816,4.109,26.983,15.448,32.639,23.336
		l-17.353,7.458c-1.984-3.095-3.814-5.792-6.644-8.345c-2.532-2.247-7.299-5.344-12.494-6.479
		c-8.081-1.764-13.13,1.972-13.987,5.896c-1.36,6.232,5.364,8.67,8.727,9.888c8.431,2.93,19.611,7.67,23.876,10.294
		c8.595,5.506,11.739,13.813,9.723,23.048c-1.285,5.887-4.892,11.872-10.247,15.903c-9.253,6.93-21.558,6.781-32.986,4.286
		c-22.973-5.017-29.773-17.629-33.567-24.627L590.018,1371.194z"/>
	<path d="M674.067,1328.447l61.499,4.787l-1.256,16.141l-40.765-3.174l-1.173,15.081l38.054,2.962l-1.229,15.787l-38.054-2.962
		l-1.541,19.793l44.416,3.457l-1.274,16.376l-65.151-5.071L674.067,1328.447z"/>
	<path d="M842.126,1326.928l6.709,83.155l-19.905,1.605l-3.484-59.35l-0.439-8.382l-0.47,3.002c-0.68,4.798-0.75,5.396-1.407,9.005
		l-11.16,57.095l-17.903,1.443l-19.391-52.257l-4.85-14.547c0.886,6.567,1,7.981,1.99,15.845l5.289,52.327l-20.142,1.626
		l-6.709-83.156l30.388-2.452l16.484,45.616l4.019,13.073c0.712-5.867,0.782-6.466,1.411-10.429l9.299-50.778L842.126,1326.928z"/>
	<path d="M896.535,1313.879l49.265,74l-21.605,5.162l-7.126-12.026l-29.88,7.139l-0.92,13.947l-21.606,5.161l10.728-88.33
		L896.535,1313.879z M890.23,1335.795c-0.047,4.385-0.18,8.911-0.341,13.322c-0.269,6.503-1.093,16.783-1.477,23.315l20.572-4.916
		L890.23,1335.795z"/>
	<path d="M930.032,1305.15l19.037-7.45l28.035,22.021c10.427,8.482,13.676,11.271,19.978,16.673l-20.392-49.505l18.598-7.279
		l30.408,77.691l-19.038,7.45l-24.13-18.854c-11.565-8.798-13.834-10.702-23.164-18.979l19.673,48.644l-18.597,7.278
		L930.032,1305.15z"/>
	<path d="M999.719,1277.249l56.467-30.719l7.905,14.531l-18.995,10.335l32.019,58.853l-18.373,9.995l-32.018-58.854l-19.099,10.391
		L999.719,1277.249z"/>
	<path d="M1078.727,1231.065l45.92,69.647l-17.362,11.448l-45.92-69.647L1078.727,1231.065z"/>
	<path d="M1188.791,1226.951c0.676,5.697,1.369,11.227-0.852,18.979c-1.183,4.163-4.445,13.067-13.426,20.38
		c-17.134,13.952-41.117,12.755-58.948-9.144c-15.594-19.151-14.894-44.864,3.433-59.785c7.422-6.044,16.108-8.85,24.099-8.956
		c7.399-0.082,12.416,1.774,16.86,3.489l-7.605,16.859c-2.632-1.36-5.522-2.664-10.303-2.733c-5.13,0.063-8.842,1.866-11.499,4.029
		c-10.446,8.506-8.035,22.695,0.769,33.508c11.564,14.201,24.549,15.363,33.253,8.276c8.43-6.865,7.045-15.49,6.186-21.037
		L1188.791,1226.951z"/>
</g>
<path d="M1130.53,984.884c0.254-2.776,0.797-5.525,1.221-8.285c-0.376,0.103-0.752,0.206-1.128,0.309
	c-1.369-1.174-2.582-3.031-4.138-3.387c-3.851-0.882-6.425-3.588-8.75-6.113c-3.873-4.207-7.393-8.89-10.262-13.836
	c-4.04-6.965-10.165-12.676-12.478-20.675c-0.108-0.373-0.719-0.571-0.994-0.929c-2.569-3.356-5.107-6.735-7.673-10.093
	c-1.071-1.402-2.26-2.719-3.265-4.166c-1.554-2.238-2.773-4.748-4.547-6.782c-1.877-2.152-1.456-6.361-5.632-6.456
	c-0.037-0.687,0.158-1.505-0.146-2.038c-3.01-5.277-5.945-10.608-9.214-15.724c-3.979-6.229-8.82-11.842-12.199-18.539
	c-2.839-5.628-8.424-9.704-9.686-16.343c-0.038-0.201-0.301-0.349-0.419-0.545c-4.944-8.183-9.93-16.341-14.787-24.576
	c-1.077-1.826-1.489-4.044-2.566-5.87c-2.136-3.62-4.657-7.014-6.771-10.646c-2.689-4.62-4.454-9.959-7.838-13.953
	c-5.231-6.173-7.973-13.598-12.017-20.344c-1.46-2.436-2.622-5.049-3.971-7.554c-2.534-4.706-5.031-9.435-7.691-14.07
	c-1.517-2.643-3.452-5.046-4.97-7.688c-1.859-3.234-3.476-6.607-5.203-9.918c-0.408-0.783-0.923-1.522-1.237-2.339
	c-0.891-2.316-1.58-4.716-2.571-6.986c-2.859-6.552-8.691-11.553-9.933-18.976c-0.08-0.48-0.843-0.807-1.107-1.301
	c-1.038-1.941-2.392-3.824-2.912-5.908c-0.913-3.654-4.278-7.65-6.753-7.446c-0.648-2.404-2.004-4.872-1.728-7.141
	c0.272-2.242-0.117-3.853-1.457-5.264c-3.365-3.545-4.52-7.895-5.569-12.516c-0.713-3.143-2.715-5.995-4.163-8.967
	c-0.134-0.275-0.489-0.708-0.643-0.67c-2.715,0.67-2.212-1.507-2.69-2.905c-0.403-1.178-0.991-2.298-1.557-3.413
	c-1.034-2.041-2.304-3.988-3.1-6.115c-0.47-1.257,0.268-3.089-0.385-4.132c-1.948-3.113-4.381-5.917-6.494-8.934
	c-1.319-1.882-2.439-3.909-3.571-5.914c-0.485-0.861-0.626-1.933-1.175-2.738c-2.387-3.508-4.895-6.934-7.28-10.444
	c-0.342-0.504-0.214-1.31-0.374-1.96c-0.243-0.988-0.27-2.195-0.868-2.903c-4.119-4.866-5.786-11.093-9.67-16.273
	c-4.694-6.262-7.103-14.236-10.508-21.466c-1.225-2.6-2.311-5.285-3.778-7.742c-0.661-1.108-2.098-1.753-3.25-2.661
	c-0.198-1.087-0.197-2.67-0.781-3.997c-2.171-4.94-4.525-9.801-6.842-14.676c-0.182-0.384-0.566-0.719-0.933-0.96
	c-4.446-2.927-6.595-7.151-7.458-12.318c-0.353-2.115-1.502-4.109-2.375-6.12c-0.388-0.895-1.006-1.688-1.493-2.543
	c-1.153-2.024-2.289-4.057-3.432-6.086c-0.039-1.489-0.216-3.041-0.808-4.415c-1.552-3.605-5.075-6.116-5.769-10.25
	c-0.053-0.314-0.947-0.427-1.341-0.762c-0.303-0.258-0.55-0.697-0.621-1.092c-0.486-2.697-0.754-5.445-1.416-8.095
	c-0.606-2.426-0.996-5.384-2.605-6.964c-2.169-2.13-0.873-7.303-7.043-6.273c3.107-2.163,3.842-3.892,1.534-5.869
	c-0.22-0.188-0.208-0.636-0.33-0.952c-2.195-5.672-1.14-12.437-5.807-17.283c-0.131-0.136-0.091-0.438-0.13-0.662
	c-0.823-4.775-1.145-9.71-2.608-14.28c-1.524-4.761-1.753-9.31-0.672-13.575c-1.177-1.131-2.105-2.023-2.341-2.25
	c0.612-2.181,1.477-3.697,1.355-5.129c-0.353-4.151-1.195-8.259-1.65-12.405c-0.172-1.564,0.189-3.186,0.304-4.781
	c0.084-1.159,0.11-2.326,0.259-3.477c0.261-2.011,0.492-4.034,0.923-6.012c0.932-4.281,1.981-8.535,3.089-13.255
	c0.244-0.191,1.412-0.654,1.786-1.478c1.575-3.475,4.483-5.319,7.846-6.311c1.941-0.573,4.445-0.896,6.186-0.147
	c3.613,1.554,6.943,3.81,10.282,5.944c2.439,1.559,5.13,3.02,6.972,5.159c5.054,5.866,9.894,11.938,14.479,18.179
	c3.108,4.231,6.446,8.594,8.197,13.435c1.62,4.481,3.637,8.688,5.562,12.996c1.547,3.464,2.405,7.229,3.7,10.813
	c1.823,5.043,4.045,9.959,5.591,15.082c1.92,6.364,3.117,12.947,5.046,19.308c0.844,2.783,0.488,4.885-1.207,7.01
	c-2.834,3.554-5.64,7.132-8.481,10.68c-1.486,1.857-2.476,3.395-0.807,6.032c2.094,3.31,3.343,7.155,4.764,10.339
	c1.784,0.92,4.051,1.376,4.975,2.742c1.238,1.829,1.436,4.362,2.037,6.444c0.32-3.454,2.246-1.257,3.998-0.923
	c-0.821,3.579,0.562,6.005,3.948,6.321c2.239,0.209,4.746-0.401,6.857-1.295c4.197-1.778,7.781-4.749,12.718-5.06
	c4.181-0.263,6.612-5.646,11.604-4.642c0.477,0.096,1.263-1.349,1.958-2.138c1.03,0.858,1.888,1.573,2.267,1.889
	c2.139-2.402,4.149-4.601,6.078-6.868c0.422-0.496,0.577-1.229,0.822-1.866c1.785-4.625,6.087-6.138,9.988-3.611
	c2.911-1.6,5.836-3.023,7.107-6.478c0.776-2.109,2.257-3.949,3.289-5.976c0.906-1.781,1.614-3.662,2.44-5.485
	c0.314-0.694,0.878-1.31,1.047-2.028c0.907-3.852,2.036-7.689,2.485-11.6c0.416-3.616,2.806-7.369-0.396-10.905
	c1.211-0.849,2.202-1.544,2.373-1.663c-0.984-2.305-2.183-4.109-2.504-6.058c-0.871-5.287-1.378-10.635-2.013-15.961
	c-0.272-2.282-1.578-5.528-0.554-6.673c3.052-3.411,0.153-4.455-2.067-6.315c1.242-0.145,1.994-0.233,3.409-0.398
	c-1.662-1.867-2.874-3.227-4.713-5.292c1.631,0.459,2.193,0.617,2.982,0.839c-0.204-0.852-0.149-1.64-0.489-1.89
	c-3.011-2.21-4.901-4.772-4.536-8.865c0.172-1.937-0.307-4.406-1.452-5.895c-3.212-4.179-2.711-10.01-6.529-13.811
	c-0.239-0.238-0.67-0.695-0.641-0.729c2.434-2.818-1.68-3.951-1.28-6.264c-1.294-0.017-2.302-0.03-2.362-0.031
	c-1.111-3.161-1.644-6.182-3.161-8.581c-1.589-2.513-4.014-4.553-6.285-6.559c-1.352-1.194-3.113-1.924-4.953-3.019
	c0.175-1.057,1.018-2.768,0.486-3.638c-1.1-1.8-2.702-3.563-4.522-4.588c-2.305-1.298-2.859-4.815-6.602-4.524
	c-1.292,0.101-2.858-2.425-4.184-3.857c-1.788-1.932-3.465-3.966-5.234-6.007c-0.57,0.317-1.294,0.718-2.025,1.124
	c-0.88-1.712-1.69-4.469-2.383-4.44c-3.518,0.149-5.232-1.994-6.748-4.417c-1.449-2.315-5.397-1.812-5.767-5.409
	c-0.059-0.574-1.881-1.065-2.947-1.41c-1.014-0.328-2.106-0.416-3.086-0.595c-2.833,0.145-5.648,0.289-8.211,0.42
	c-0.358-1.443-0.767-3.092-1.175-4.74c-0.879,0.607-1.757,1.213-1.886,1.302c-3.261-0.981-6.089-1.831-9.829-2.956
	c1.826-0.57,2.713-0.847,3.599-1.124c-2.359-0.24-4.947,0.951-6.828,0.248c-2.152-0.804-4.066-1.597-6.454-1.68
	c-4.067-0.141-7.816-1.921-12.253-0.956c-4.88,1.062-10.152,0.16-15.187,0.717c-4.374,0.484-8.636,2.481-12.98,2.595
	c-5.414,0.141-9.478,2.885-13.992,5.014c-2.377,1.121-5.136,1.472-7.751,2.038c-3.213,0.695-6.683,0.716-9.641,1.974
	c-7.107,3.023-14.322,6.049-20.845,10.114c-5.839,3.64-10.994,8.472-16.105,13.156c-3.592,3.291-6.749,7.097-9.823,10.898
	c-2.011,2.487-3.605,5.329-5.242,8.096c-1.765,2.985-3.419,6.041-5.009,9.124c-0.699,1.356-1.201,2.83-1.647,4.295
	c-0.449,1.475-0.631,3.031-1.081,4.505c-1.003,3.279-2.773,6.477-3.035,9.802c-0.852,10.824-1.251,21.656,1.167,32.436
	c1.02,4.546,0.724,9.372,1.443,14.005c1.018,6.556,2.029,13.159,3.767,19.545c1.979,7.273,4.76,14.328,7.175,21.483
	c0.291,0.861,0.907,1.933,0.634,2.609c-1.605,3.974,3.807,5.658,2.968,9.535c-0.204,0.942,2.245,2.226,2.881,3.622
	c2.796,6.147,5.357,12.4,8.037,18.6c2.492,5.768,4.912,11.571,7.573,17.261c2.66,5.687,5.627,11.23,8.372,16.878
	c3.571,7.35,7.052,14.745,10.587,22.112c0.196,0.409,0.545,0.742,0.807,1.122c1.878,2.725,4.364,4.843,5.029,8.578
	c1.077,6.047,6.455,9.828,9.309,15.013c1.984,3.605,4.082,7.15,5.949,10.814c2.593,5.087,4.987,10.276,7.524,15.393
	c2.535,5.111,6.92,9.112,8.355,14.965c0.823,3.356,2.735,6.489,4.419,9.579c2.767,5.078,5.89,9.963,8.602,15.068
	c3.712,6.985,7.647,13.792,12.685,19.934c0.976,1.19,1.385,2.848,2.037,4.299c0.534,1.189,1,2.41,1.566,3.583
	c1.429,2.96,2.813,5.946,4.376,8.835c1.52,2.81,2.801,5.966,5.019,8.108c1.596,1.542,2.149,2.559,2.213,4.737
	c0.047,1.619,1.806,3.187,3.222,5.449c-0.683,2.595,17.992,35.462,22.469,38.315c0.129,1.593,0.328,2.93,0.328,4.266
	c-0.001,3.027,2.978,3.873,4.181,5.912c2.056,3.484,3.392,7.385,5.272,10.984c2.82,5.399,6.615,10.149,8.069,16.437
	c0.818,3.537,3.383,6.73,4.584,10.61c1.577,5.094,5.661,9.396,8.566,14.1c1.732,2.805,4.394,5.646,4.613,8.619
	c0.278,3.781,1.414,5.618,4.152,6.003c0.414,2.565,0.065,5.216,1.221,6.675c3.573,4.509,8.741,7.813,10.051,13.963
	c0.33,1.549,0.307,3.295,1.051,4.608c1.506,2.658,3.426,5.081,5.302,7.782c0.292-0.205,0.77-0.542,1.318-0.927
	c1.122,1.86,3.04,3.625,3.141,5.489c0.249,4.579,1.92,8.355,4.607,11.864c3.392,4.43,6.774,8.868,10.125,13.256
	c-0.083,0.031-0.639,0.237-1.201,0.444c-0.352,0.431-0.704,0.861-1.056,1.292c1.122,0.604,2.52,0.963,3.312,1.858
	c2.054,2.321,3.991,4.779,5.697,7.365c2.028,3.074,3.727,6.364,5.641,9.516c2.051,3.38,4.273,6.66,6.244,10.084
	c0.838,1.456,0.931,3.383,1.888,4.719c1.815,2.534,4.393,4.572,5.941,7.232c1.617,2.78,6.779,4.128,4.21,9.128
	c0.802-0.591,1.605-1.183,1.655-1.22c1.144,1.526,2.255,2.777,3.096,4.19c0.987,1.658,1.74,3.455,2.458,4.913
	c1.369,1.242,3.05,2.185,3.845,3.619c1.292,2.331,2.387,4.922,2.806,7.525c0.223,1.384-0.747,3.688-1.901,4.391
	c-1.638,0.999-3.989,1.385-5.954,1.192c-7.297-0.714-14.526,0.686-21.877,0.126c-7.691-0.586-15.518,0.731-23.292,1.079
	c-9.991,0.447-19.985,0.849-29.983,1.093c-6.743,0.165-13.494-0.026-20.24,0.064c-1.328,0.018-2.652,0.869-3.973,0.855
	c-5.427-0.058-10.852-0.367-16.279-0.456c-4.786-0.079-9.575,0.042-14.363,0.011c-1.487-0.01-2.978-0.372-4.458-0.321
	c-5.298,0.18-10.591,0.54-15.889,0.694c-4.332,0.126-8.671,0.025-13.006,0.082c-2.468,0.033-4.936,0.175-7.403,0.283
	c-1.034,0.045-2.074,0.074-3.1,0.202c-2.883,0.359-5.937,1.569-8.602,0.981c-4.996-1.102-9.72-0.506-14.65,0.045
	c-7.354,0.823-14.787,0.951-22.187,1.361c-9.238,0.511-18.477,1.02-27.716,1.506c-6.33,0.333-12.673,0.495-18.991,0.986
	c-4.189,0.325-8.329,1.338-12.518,1.596c-3.661,0.225-7.38-0.477-11.038-0.237c-6.855,0.45-13.874-0.852-20.555,1.837
	c-0.816,0.328-1.964-0.201-2.962-0.282c-0.938-0.076-1.886-0.162-2.823-0.109c-7.049,0.399-14.091,0.919-21.144,1.224
	c-5.761,0.249-11.542,0.091-17.297,0.424c-3.496,0.202-6.948,1.353-10.436,1.446c-7.718,0.206-15.29,2.128-23.053,1.725
	c-2.466-0.128-4.956,0.274-7.438,0.37c-3.358,0.129-6.987-0.579-10.012,0.472c-4.397,1.528-8.987-2.262-13.039,1.049
	c-0.058,0.047-0.241,0.021-0.311-0.037c-3.296-2.715-7.281-0.897-10.492-1.877c-0.52,1.155-0.897,1.991-1.187,2.635
	c-1.46-1.702-2.653-3.093-3.336-3.888c-1.668,1.574-2.697,3.375-3.932,3.53c-2.209,0.277-4.548-0.405-6.824-0.744
	c-5.545-0.827-11.084-1.687-16.483-2.512c0.166-0.994,0.363-1.978,0.431-2.971c0.005-0.071-0.935-0.311-1.428-0.292
	c-1.638,0.063-3.272,0.21-5.608,0.373c-1.585,1.482-1.472,0.941-4.253,0.363c-2.094-0.435-3.692-3.212-6.564-1.27
	c-1.207,0.816-3.558,0.209-5.31-0.144c-1.131-0.228-2.118-1.168-3.21-1.813c0.038-0.634,0.083-1.382,0.143-2.377
	c-1.192,0.871-1.991,1.945-2.814,1.964c-2.345,0.052-4.699-0.326-6.938-0.526c0.498-0.746,1.13-1.692,2.288-3.427
	c-2.455,0.798-4.013,1.539-5.645,1.771c-1.738,0.248-3.545,0.015-5.045-0.005c-0.294,1.003-0.491,1.672-0.687,2.341
	c-0.406,0.005-0.813,0.009-1.219,0.014c-0.136-1.236-0.272-2.473-0.403-3.659c-6.9,1.585-10.616,0.951-14.985-2.728
	c-2.441,2.899-4.798,3.599-7.491,1.315c-1.111-0.942-1.674-3.774-1.112-5.209c1.57-4.013,3.385-8.108,5.986-11.494
	c2.982-3.882,4.998-7.978,6.141-12.644c0.189-0.773,0.729-1.498,1.233-2.149c1.062-1.37,2.385-2.567,3.283-4.03
	c2.331-3.802,4.509-7.699,6.712-11.578c2.57-4.528,5.174-9.039,7.628-13.63c2.004-3.747,3.733-7.641,5.727-11.394
	c1.736-3.268,3.826-6.353,5.475-9.661c1.525-3.06,2.475-6.41,4.031-9.452c2.265-4.426,4.824-8.704,7.304-13.018
	c1.326-2.307,3.597-4.429,3.97-6.859c1.055-6.887,5.595-11.918,8.377-17.861c3.945-8.428,7.358-17.105,11.02-25.666
	c1.013-2.367,2.14-4.685,3.146-7.055c1.178-2.775,2.281-5.582,3.572-8.758c0.074,0.095-0.378-0.486-0.828-1.066
	c2.973-2.339,8.462-11.904,10.157-17.078c1.221-3.728,2.136-7.771,4.281-10.93c3.102-4.567,4.491-9.716,6.529-14.645
	c0.881-2.131,1.313-4.448,2.056-7.058c0.263-0.274,1.357-0.9,1.623-1.777c1.327-4.379,1.966-9.037,5.663-12.324
	c0.15-0.133,0.2-0.394,0.266-0.604c1.239-3.994,2.323-8.044,3.753-11.969c1.269-3.485,2.97-6.81,4.383-10.245
	c0.87-2.114,2.312-4.358,2.159-6.445c-0.265-3.609,1.61-6.359,2.595-9.441c0.788-2.465,2.285-4.694,3.214-7.125
	c1.468-3.84,2.554-7.831,4.105-11.634c3.086-7.563,6.454-15.011,9.563-22.565c2.892-7.027,3.674-14.908,8.576-21.131
	c0.336-0.427,0.374-1.086,0.563-1.633c1.15-3.316,2.393-6.603,3.426-9.955c0.728-2.361,1.174-4.81,1.792-7.413
	c3.119-0.879,3.307-1.129,3.144-4.577c-0.175-3.688,2.013-6.991,5.758-7.728c5.167,10.772,10.415,21.712,15.665,32.656
	c0.693-0.422,1.523-0.927,2.768-1.685c-0.654,2.341-1.178,4.215-1.784,6.384c1.012,1.197,2.497,2.955,4.019,4.756
	c-2.515,2.715-2.472,2.921,1.148,5.165c0.372,0.231,0.771,0.506,1.004,0.861c3.727,5.678,7.419,11.38,11.147,17.057
	c0.791,1.205,1.735,2.308,2.538,3.506c0.873,1.303,1.454,2.872,2.535,3.952c2.152,2.149,5.085,3.936,4.71,7.394
	c-0.429,3.96,1.519,6.68,3.577,9.629c2.254,3.231,4.248,6.667,6.106,10.146c2.152,4.03,2.612,9.348,8.417,10.402
	c0.104,0.019,0.228,0.105,0.281,0.195c1.648,2.818,3.822,5.475,4.766,8.514c0.792,2.552,2.385,4.513,3.313,6.629
	c2.103,4.794,7.073,6.753,9.149,11.109c1.576,3.305,4.888,5.566,5.067,9.765c0.194,4.55,1.635,8.738,6.274,10.985
	c0.596,0.289,1.246,1.417,1.145,2.039c-0.704,4.34,2.912,6.462,4.785,9.407c1.397,2.195,3.834,3.749,5.13,5.982
	c1.369,2.359,1.859,5.072,4.994,6.161c1.166,0.405,1.911,2.19,2.716,3.432c2.613,4.031,5.185,8.089,7.731,12.163
	c1.202,1.923,2.317,3.9,3.454,5.863c1.917,3.312,3.729,6.688,5.753,9.932c1.903,3.05,4.08,5.928,6.031,8.95
	c2.495,3.866,2.626,8.85,6.572,12.182c2.86,2.414,4.74,5.981,7.099,9c2.143,2.742,4.585,5.284,6.464,8.192
	c3.327,5.146,6.355,10.487,9.455,15.778c2.513,4.289,4.939,8.629,7.419,12.937c1.081,1.879,0.771,5.167,4.505,4.447
	c0.27-0.052,0.793,0.765,1.067,1.252c2.393,4.241,3.798,5.656,7.742,7.859c0.36,0.201,0.488,0.78,0.813,1.088
	c3.095,2.93,5.74,3.044,9.27,0.517c0.833-0.596,1.836-0.949,2.711-1.492c1.402-0.87,2.763-1.807,4.257-2.791
	c1.708,1.846,5.54,1.517,7.633-1.149c0.517-0.659,1.218-1.477,1.948-1.615c4.049-0.765,8.189-1.123,12.171-2.121
	c1.176-0.295,2.925-2.469,2.701-3.345c-0.509-1.995,0.192-1.847,1.65-2.262c4.217-1.201,8.681-2.161,12.375-4.351
	c2.525-1.497,4.347-1.941,6.609-0.59c1.354-1.538,2.549-2.896,3.569-4.055c-0.351-2.416-1.27-4.77-0.876-6.88
	c0.764-4.094-1.218-7.207-3.283-9.984c-1.425-1.917-3.58-3.067-2.525-5.937c0.093-0.254-0.433-0.77-0.723-1.124
	c-2.087-2.548-4.222-5.058-6.272-7.634c-1.813-2.279-3.543-4.623-5.298-6.948c-2.805-3.715-5.523-7.499-8.428-11.134
	c-1.725-2.159-4.101-3.83-3.944-7.087c0.045-0.94-0.434-2.069-1.021-2.85c-3.15-4.187-6.406-8.295-9.637-12.421
	c-0.553-0.707-1.788-1.592-1.638-2.019c0.791-2.248-0.885-3.255-1.943-4.572c-2.083-2.591-4.452-4.988-6.257-7.756
	c-2.745-4.213-5.002-8.74-7.662-13.013c-4.57-7.343-9.437-14.504-13.877-21.923c-1.84-3.074-2.794-6.665-4.337-9.933
	c-2.763-5.851-7.284-10.624-9.806-16.723c-2.097-5.071-5.408-9.651-8.326-14.358c-0.384-0.619-1.626-0.706-1.698-0.734
	c-0.486-1.693-0.552-3.102-1.23-4.088c-3.184-4.628-6.698-9.034-9.77-13.731c-1.983-3.032-3.628-6.121-7.307-5.457
	c-3.62-10.514-8.853-19.563-15.723-27.502c-0.634-1.739-0.962-3.601-1.91-5.061c-2.906-4.474-6.223-8.685-9.043-13.209
	c-2.044-3.279-3.432-6.96-5.331-10.338c-2.133-3.793-4.787-7.311-6.731-11.19c-4.583-9.148-8.853-18.453-13.302-27.669
	c-2.969-6.152-6.007-12.271-9.053-18.385c-3.07-6.161-6.224-12.281-9.253-18.461c-0.566-1.155-0.724-2.51-1.065-3.774
	c-0.577-2.141-0.48-5.037-1.865-6.266c-2.74-2.432-2.704-5.601-3.749-8.51c-0.997-2.774-2.088-5.52-3.289-8.21
	c-0.445-0.996-1.637-1.701-1.95-2.707c-1.524-4.903-1.905-10.204-5.299-14.444c-0.353-0.441-0.138-1.313-0.251-1.973
	c-0.173-1.009-0.25-2.072-0.635-3.002c-1.85-4.46-4.144-8.769-5.618-13.345c-2.48-7.699-4.11-15.682-6.788-23.303
	c-1.488-4.235-1.656-8.183-0.96-12.439c0.405-2.475-0.428-5.494,0.71-7.441c2.928-5.007-2.435-2.669-3.444-4.138
	c-1.871-2.725-4.642-4.852-7.128-7.131c-2.396-2.197-4.894-4.282-7.373-6.386c-0.324-0.275-0.848-0.59-1.201-0.516
	c-3.034,0.643-5.687-0.825-8.513-1.357c-1.618-0.304-3.419-0.175-5.033,0.203c-1.515,0.355-2.892,1.296-4.539,2.079
	c-0.069-2.544-0.847-4.126-2.742-2.374c-2.397,2.215-4.276,4.991-6.022,7.095c-1.418-0.093-2.452-0.456-3.231-0.156
	c-2.16,0.83-4.213,1.937-6.988,3.257c0.196-1.888,0.275-2.65,0.403-3.888c-5.527,2.849-10.655,5.52-15.821,8.115
	c-0.549,0.276-1.341,0.019-1.985,0.165c-1.495,0.339-3.236,0.414-4.383,1.263c-1.356,1.004-1.919,3.342-3.324,3.947
	c-1.607,0.693-3.76,0.116-5.371,0.096c-0.233,0.755-0.331,1.718-0.792,2.451c-1.853,2.947-3.89,5.78-5.687,8.758
	c-0.397,0.657-0.087,1.738-0.111,2.623c-0.094,3.521-0.078,7.05-0.317,10.561c-0.249,3.654-0.712,7.296-1.154,10.934
	c-0.122,1.001-0.443,1.991-0.778,2.949c-0.689,1.972-1.814,3.865-2.109,5.886c-0.865,5.918-1.2,11.916-2.142,17.82
	c-0.962,6.031-3.051,11.911-1.409,18.164c0.412,1.571,0.535,3.348,0.267,4.943c-0.976,5.822-1.994,11.648-3.338,17.393
	c-1.244,5.317-2.94,10.527-4.409,15.791c-0.863,3.092-1.434,6.289-2.568,9.274c-1.337,3.52-4.151,6.403-4.023,10.604
	c0.037,1.218-1.772,2.387-2.188,3.745c-1.341,4.379-2.404,8.842-3.617,13.261c-0.987,3.595-2.034,7.173-3.359,11.831
	c-3.836,2.915-4.125,3.904-0.601,6.065c-2.96,1.6-3.907,3.827-2.152,6.807c0.079,0.134-0.116,0.432-0.188,0.652
	c-1.131,3.439-2.316,6.861-3.373,10.322c-0.536,1.755-0.843,3.579-1.314,5.641c1.244-0.311,1.733-0.434,3.038-0.76
	c-1.542,1.807-2.877,2.788-3.394,4.094c-1.236,3.119-3.857,7.383-2.728,9.398c2.439,4.352-0.376,6.082-2.147,8.604
	c-1.726,2.458-3.987,4.629-5.277,7.284c-2.438,5.016-4.374,10.277-6.452,15.463c-0.381,0.95-0.448,2.025-0.66,3.043
	c0.879-0.358,1.759-0.716,3.517-1.432c-5.998,9.088-13.12,16.937-13.502,28.015c-0.543,0.407-1.84,0.881-2.225,1.756
	c-1.458,3.313-2.514,6.802-3.936,10.133c-0.758,1.776-2.163,3.28-2.895,5.063c-0.707,1.722-0.981,3.634-1.335,5.484
	c-0.185,0.968,0.121,2.084-0.232,2.957c-1.787,4.424-4.384,8.637-5.433,13.213c-1.39,6.068-5,10.995-7.094,16.643
	c-0.856,2.309-1.47,4.716-2.438,6.974c-2.074,4.838-4.308,9.608-6.475,14.402c0.646,0.393,1.251,0.761,1.791,1.09
	c-0.878,0.908-1.462,1.777-2.27,2.302c-3.766,2.447-2.131,7.355-5.426,10.655c-3.345,3.351-3.979,9.305-6.179,13.94
	c-1.438,3.03-0.345,7.269-4.659,9.111c-1.1,0.469-1.516,3.138-1.773,4.866c-0.646,4.331-2.257,8.023-5.261,11.329
	c-1.283,1.411-3.974,3.16-2.024,5.333c-1.046,1.47-2.896,2.996-2.627,3.87c1.503,4.88-1.442,8.091-3.823,11.458
	c-2.202,3.115-4.764,5.976-7.293,9.105c0.162,0.427,1.166,1.746,0.84,2.456c-1.005,2.191-2.493,4.166-3.841,6.193
	c-0.993,1.493-2.327,2.819-3.041,4.427c-1.551,3.493-1.115,7.702-4.017,10.773c-1.058,1.12-1.573,2.735-2.471,4.03
	c-1.22,1.759-2.748,3.325-3.817,5.164c-1.099,1.89-1.607,4.129-2.74,5.993c-1.105,1.82-3.947,3.505-3.776,4.991
	c0.379,3.295-1.136,3.545-2.603,3.449c-1.119,2.032-1.97,3.507-2.741,5.021c-0.243,0.477-0.282,1.061-0.403,1.599
	c-0.328,1.468-0.676,2.932-0.961,4.408c-0.113,0.586,0.07,1.263-0.149,1.787c-0.297,0.71-1.016,1.934-1.27,1.866
	c-2.758-0.731-3.317,1.641-4.24,3.088c-1.76,2.757-3.031,5.828-4.816,8.565c-0.769,1.18-2.316,1.85-3.501,2.763
	c-0.152,0.117-0.253,0.301-0.376,0.454c0.354,0.238,0.706,0.476,0.502,0.338c-0.889,2.02-1.473,3.967-2.525,5.616
	c-2.81,4.406-5.848,8.665-8.727,13.028c-0.584,0.886-1.373,2.084-1.186,2.947c0.521,2.403-0.971,2.737-2.557,3.69
	c-3.268,1.964-6.834,3.92-9.196,6.775c-2.781,3.361-5.932,8.383-8.299,10.234c-0.092,0.072,0.039,0.427,0.103,0.964
	c1.963,0.519,4.128,0.885,6.065,1.756c0.459,0.206,0.44,3.002,0.158,3.092c-2.57,0.817-1.901,2.115-1.217,3.995
	c0.961,2.64,3.021,5.712-1.013,7.8c-1.162,0.602-2.359,1.136-3.539,1.701c0.173,1.244,0.34,2.454,0.508,3.664
	c-0.345-0.169-0.689-0.338-1.034-0.507c-1.08,1.512-2.161,3.024-3.813,5.336c1.743-0.265,2.392-0.498,3.013-0.437
	c4.095,0.406,4.447,1.485,2.997,5.288c-0.582,1.527,0.012,3.807,0.773,5.411c0.367,0.774,2.362,0.774,3.853,1.19
	c-0.507,0.465-1.316,0.883-1.523,1.503c-0.16,0.476,0.463,1.752,0.695,1.741c2.931-0.136,5.906,1.636,8.849-0.247
	c0.441-0.282,1.59,0.542,2.792,0.999c-1.011,1.523-1.818,2.739-3.278,4.941c3.063-0.863,5.19-1.463,7.31-2.06
	c0.748,1.936,1.472,3.807,2.361,6.106c2.292-2.854,4.239-5.279,6.187-7.705c0.334,0.194,0.669,0.387,1.003,0.581
	c-0.419,1.506-0.837,3.012-1.15,4.138c3.301,0.225,6.5,0.653,9.691,0.607c3.78-0.054,7.796,0.182,11.26-1.012
	c3.083-1.063,5.927-2.238,9.204-1.779c1.855,0.26,3.698,0.9,5.541,0.882c3.818-0.037,7.638-0.337,11.447-0.644
	c4.908-0.395,9.802-0.951,14.71-1.34c2.571-0.204,5.492,0.517,7.648-0.485c2.245-1.043,3.952-1.389,6.119-0.432
	c0.415,0.183,1.086-0.295,1.651-0.354c6.424-0.664,12.846-1.764,19.276-1.82c5.928-0.052,11.589-0.661,17.086-2.864
	c0.664-0.266,1.497-0.111,2.367-0.157c0.109-0.553,0.308-1.56,0.599-3.038c1.813,1.548,3.182,2.717,4.081,3.485
	c4.183-0.692,7.83-1.295,11.041-1.826c5.808,1.941,11.097,1.505,16.501-1.026c0.204,0.324,0.552,0.878,0.934,1.487
	c3.633-1.731,6.876-3.617,11.241-1.191c2.12,1.178,5.4,1.409,8.079-1.726c1.761-2.061,5.69-2.996,8.676-3.058
	c2.506-0.052,5.044,1.692,7.895,1.651c5.68-0.082,11.287,1.475,16.971-1.493c2.86-1.494,6.878-0.682,10.342-1.141
	c1.95-0.258,3.84-0.979,6.054-1.571c0.133,0.218,0.595,0.973,0.601,0.982c3.199-1.146,5.587-2.002,7.895-2.829
	c0.615,0.826,1.217,1.636,1.362,1.831c4.023-0.224,7.479-0.417,12.287-0.685c1.271-1.361,4.081-1.313,7.385-0.482
	c2.126,0.535,4.579-0.21,6.882-0.414c1.347-0.119,2.716-0.548,4.028-0.407c2.73,0.295,5.441,1.309,8.139,1.235
	c3.822-0.105,7.636-0.859,11.434-1.458c5.071-0.8,10.123-1.716,15.197-2.585c0.872,2.187,0.85,2.16,2.753,0.604
	c0.383-0.314,0.999-0.461,1.514-0.477c5.187-0.165,10.383-0.508,15.562-0.339c3.222,0.105,6.364,0.782,9.268-1.286
	c0.61-0.434,1.583-0.657,2.326-0.547c1.94,0.286,4.769-1.673,5.483,1.991c3.597-0.426,7.681,0.028,10.615-1.597
	c1.861-1.031,2.836-0.224,4.102-0.2c1.613,0.03,3.215,1.057,4.821,1.053c7.511-0.019,14.914-2.058,22.49-1.252
	c0.718,0.076,1.488-0.518,2.257-0.699c1.56-0.366,3.132-0.916,4.707-0.943c8.182-0.14,16.367-0.071,24.548-0.232
	c2.244-0.044,4.472-0.683,6.718-0.955c1.47-0.178,2.966-0.321,4.439-0.25c6.241,0.302,12.508,1.239,18.707,0.892
	c6.143-0.343,12.15-2.674,18.45-0.892c1.571,0.444,3.331,0.28,5.004,0.292c2.899,0.021,5.798-0.015,8.697-0.073
	c2.054-0.041,4.108-0.141,6.16-0.243c3.094-0.154,6.195-0.562,9.278-0.452c5.214,0.186,10.431,1.129,15.621,0.957
	c7.211-0.238,14.391-1.293,21.598-1.813c1.878-0.135,3.807,0.639,5.709,0.619c5.2-0.056,10.396-0.365,15.596-0.46
	c1.603-0.029,3.217,0.28,4.818,0.488c3.738,0.485,7.114-2.641,11.15-0.725c2.277,1.081,5.123,0.966,7.81,1.406
	c0.075-0.463-0.04-1.307,0.328-1.719c0.993-1.111,5.404-0.388,6.609,0.699c0.675,0.609,1.851,1.126,2.688,0.99
	c1.566-0.254,3.015-1.307,4.577-1.495c2.619-0.316,5.289-0.293,7.936-0.262c2.051,0.024,4.183,0.716,6.133,0.344
	c5.465-1.042,10.785-2.769,16.505-1.577c2.678,0.558,5.488,0.495,8.241,0.681c4.852,0.329,9.136-5.111,14.338-1.426
	c0.12,0.085,0.433-0.153,0.655-0.152c7.216,0.028,14.432,0.108,21.648,0.074c1.585-0.008,3.169-0.409,4.752-0.641
	c4.342-0.636,8.679-1.307,13.029-1.876c0.466-0.061,1.144,0.336,1.493,0.726c2.137,2.392,4.122,1.399,5.399-0.641
	c1.209-1.932,2.257-1.306,3.979-1.06c4.862,0.695,9.798,0.865,14.707,1.225c0.207,0.015,0.473-0.089,0.634-0.228
	c1.625-1.408,3.233-2.835,4.956-4.354c0.685,1.305,1.028,1.958,1.264,2.408c1.87-1.023,3.724-1.683,5.093-2.891
	c1.269-1.119,2.019-2.826,3.321-4.75c0.37-0.065,1.711-0.023,2.765-0.552c1.349-0.677,3.551-1.9,3.484-2.737
	c-0.202-2.543,1.396-3.635,2.937-4.494c2.828-1.576,4.822-3.154,3.455-6.847c-0.21-0.568,1.137-1.713,1.177-1.768
	C1130.814,987.674,1130.405,986.255,1130.53,984.884z"/>
</svg>
